<svg width="207" height="108" viewBox="0 0 207 108" fill="none" xmlns="http://www.w3.org/2000/svg">
<path fill-rule="evenodd" clip-rule="evenodd" d="M55 40H35V0H55C66.0457 0 75 8.9543 75 20C75 31.0457 66.0457 40 55 40ZM73 20C73 10.0589 64.9411 2 55 2H37V38H55C64.9411 38 73 29.9411 73 20Z" fill="black"/>
<path d="M18 30H35" stroke="black" stroke-width="2"/>
<line x1="11" y1="10" x2="35" y2="10" stroke="black" stroke-width="2"/>
<line x1="83" y1="20" x2="99" y2="20" stroke="black" stroke-width="2"/>
<path d="M4.56445 11.916V8.65234C4.56445 8.40234 4.51367 8.18555 4.41211 8.00195C4.31445 7.81445 4.16602 7.66992 3.9668 7.56836C3.76758 7.4668 3.52148 7.41602 3.22852 7.41602C2.95508 7.41602 2.71484 7.46289 2.50781 7.55664C2.30469 7.65039 2.14453 7.77344 2.02734 7.92578C1.91406 8.07812 1.85742 8.24219 1.85742 8.41797H0.773438C0.773438 8.19141 0.832031 7.9668 0.949219 7.74414C1.06641 7.52148 1.23438 7.32031 1.45312 7.14062C1.67578 6.95703 1.94141 6.8125 2.25 6.70703C2.5625 6.59766 2.91016 6.54297 3.29297 6.54297C3.75391 6.54297 4.16016 6.62109 4.51172 6.77734C4.86719 6.93359 5.14453 7.16992 5.34375 7.48633C5.54688 7.79883 5.64844 8.19141 5.64844 8.66406V11.6172C5.64844 11.8281 5.66602 12.0527 5.70117 12.291C5.74023 12.5293 5.79688 12.7344 5.87109 12.9062V13H4.74023C4.68555 12.875 4.64258 12.709 4.61133 12.502C4.58008 12.291 4.56445 12.0957 4.56445 11.916ZM4.75195 9.15625L4.76367 9.91797H3.66797C3.35938 9.91797 3.08398 9.94336 2.8418 9.99414C2.59961 10.041 2.39648 10.1133 2.23242 10.2109C2.06836 10.3086 1.94336 10.4316 1.85742 10.5801C1.77148 10.7246 1.72852 10.8945 1.72852 11.0898C1.72852 11.2891 1.77344 11.4707 1.86328 11.6348C1.95312 11.7988 2.08789 11.9297 2.26758 12.0273C2.45117 12.1211 2.67578 12.168 2.94141 12.168C3.27344 12.168 3.56641 12.0977 3.82031 11.957C4.07422 11.8164 4.27539 11.6445 4.42383 11.4414C4.57617 11.2383 4.6582 11.041 4.66992 10.8496L5.13281 11.3711C5.10547 11.5352 5.03125 11.7168 4.91016 11.916C4.78906 12.1152 4.62695 12.3066 4.42383 12.4902C4.22461 12.6699 3.98633 12.8203 3.70898 12.9414C3.43555 13.0586 3.12695 13.1172 2.7832 13.1172C2.35352 13.1172 1.97656 13.0332 1.65234 12.8652C1.33203 12.6973 1.08203 12.4727 0.902344 12.1914C0.726562 11.9062 0.638672 11.5879 0.638672 11.2363C0.638672 10.8965 0.705078 10.5977 0.837891 10.3398C0.970703 10.0781 1.16211 9.86133 1.41211 9.68945C1.66211 9.51367 1.96289 9.38086 2.31445 9.29102C2.66602 9.20117 3.05859 9.15625 3.49219 9.15625H4.75195Z" fill="black"/>
<circle cx="78" cy="20" r="4" stroke="black" stroke-width="2"/>
<path fill-rule="evenodd" clip-rule="evenodd" d="M56 108H36V68H56C67.0457 68 76 76.9543 76 88C76 99.0457 67.0457 108 56 108ZM74 88C74 78.0589 65.9411 70 56 70H38V106H56C65.9411 106 74 97.9411 74 88Z" fill="black"/>
<line x1="12" y1="98" x2="36" y2="98" stroke="black" stroke-width="2"/>
<line x1="23" y1="78" x2="36" y2="78" stroke="black" stroke-width="2"/>
<line x1="84" y1="88" x2="100" y2="88" stroke="black" stroke-width="2"/>
<path d="M1.82031 93H2.91016V100.77L2.81641 102H1.82031V93ZM7.19336 98.7773V98.9004C7.19336 99.3613 7.13867 99.7891 7.0293 100.184C6.91992 100.574 6.75977 100.914 6.54883 101.203C6.33789 101.492 6.08008 101.717 5.77539 101.877C5.4707 102.037 5.12109 102.117 4.72656 102.117C4.32422 102.117 3.9707 102.049 3.66602 101.912C3.36523 101.771 3.11133 101.57 2.9043 101.309C2.69727 101.047 2.53125 100.73 2.40625 100.359C2.28516 99.9883 2.20117 99.5703 2.1543 99.1055V98.5664C2.20117 98.0977 2.28516 97.6777 2.40625 97.3066C2.53125 96.9355 2.69727 96.6191 2.9043 96.3574C3.11133 96.0918 3.36523 95.8906 3.66602 95.7539C3.9668 95.6133 4.31641 95.543 4.71484 95.543C5.11328 95.543 5.4668 95.6211 5.77539 95.7773C6.08398 95.9297 6.3418 96.1484 6.54883 96.4336C6.75977 96.7188 6.91992 97.0605 7.0293 97.459C7.13867 97.8535 7.19336 98.293 7.19336 98.7773ZM6.10352 98.9004V98.7773C6.10352 98.4609 6.07422 98.1641 6.01562 97.8867C5.95703 97.6055 5.86328 97.3594 5.73438 97.1484C5.60547 96.9336 5.43555 96.7656 5.22461 96.6445C5.01367 96.5195 4.75391 96.457 4.44531 96.457C4.17188 96.457 3.93359 96.5039 3.73047 96.5977C3.53125 96.6914 3.36133 96.8184 3.2207 96.9785C3.08008 97.1348 2.96484 97.3145 2.875 97.5176C2.78906 97.7168 2.72461 97.9238 2.68164 98.1387V99.5508C2.74414 99.8242 2.8457 100.088 2.98633 100.342C3.13086 100.592 3.32227 100.797 3.56055 100.957C3.80273 101.117 4.10156 101.197 4.45703 101.197C4.75 101.197 5 101.139 5.20703 101.021C5.41797 100.9 5.58789 100.734 5.7168 100.523C5.84961 100.312 5.94727 100.068 6.00977 99.791C6.07227 99.5137 6.10352 99.2168 6.10352 98.9004Z" fill="black"/>
<circle cx="79" cy="88" r="4" stroke="black" stroke-width="2"/>
<path fill-rule="evenodd" clip-rule="evenodd" d="M142 74H122V34H142C153.046 34 162 42.9543 162 54C162 65.0457 153.046 74 142 74ZM160 54C160 44.0589 151.941 36 142 36H124V72H142C151.941 72 160 63.9411 160 54Z" fill="black"/>
<line x1="98" y1="64" x2="122" y2="64" stroke="black" stroke-width="2"/>
<line x1="98" y1="44" x2="122" y2="44" stroke="black" stroke-width="2"/>
<line x1="170" y1="54" x2="186" y2="54" stroke="black" stroke-width="2"/>
<path d="M189.539 53.9004V53.7656C189.539 53.3086 189.605 52.8848 189.738 52.4941C189.871 52.0996 190.062 51.7578 190.312 51.4688C190.562 51.1758 190.865 50.9492 191.221 50.7891C191.576 50.625 191.975 50.543 192.416 50.543C192.861 50.543 193.262 50.625 193.617 50.7891C193.977 50.9492 194.281 51.1758 194.531 51.4688C194.785 51.7578 194.979 52.0996 195.111 52.4941C195.244 52.8848 195.311 53.3086 195.311 53.7656V53.9004C195.311 54.3574 195.244 54.7812 195.111 55.1719C194.979 55.5625 194.785 55.9043 194.531 56.1973C194.281 56.4863 193.979 56.7129 193.623 56.877C193.271 57.0371 192.873 57.1172 192.428 57.1172C191.982 57.1172 191.582 57.0371 191.227 56.877C190.871 56.7129 190.566 56.4863 190.312 56.1973C190.062 55.9043 189.871 55.5625 189.738 55.1719C189.605 54.7812 189.539 54.3574 189.539 53.9004ZM190.623 53.7656V53.9004C190.623 54.2168 190.66 54.5156 190.734 54.7969C190.809 55.0742 190.92 55.3203 191.068 55.5352C191.221 55.75 191.41 55.9199 191.637 56.0449C191.863 56.166 192.127 56.2266 192.428 56.2266C192.725 56.2266 192.984 56.166 193.207 56.0449C193.434 55.9199 193.621 55.75 193.77 55.5352C193.918 55.3203 194.029 55.0742 194.104 54.7969C194.182 54.5156 194.221 54.2168 194.221 53.9004V53.7656C194.221 53.4531 194.182 53.1582 194.104 52.8809C194.029 52.5996 193.916 52.3516 193.764 52.1367C193.615 51.918 193.428 51.7461 193.201 51.6211C192.979 51.4961 192.717 51.4336 192.416 51.4336C192.119 51.4336 191.857 51.4961 191.631 51.6211C191.408 51.7461 191.221 51.918 191.068 52.1367C190.92 52.3516 190.809 52.5996 190.734 52.8809C190.66 53.1582 190.623 53.4531 190.623 53.7656ZM200.549 55.5352V50.6602H201.639V57H200.602L200.549 55.5352ZM200.754 54.1992L201.205 54.1875C201.205 54.6094 201.16 55 201.07 55.3594C200.984 55.7148 200.844 56.0234 200.648 56.2852C200.453 56.5469 200.197 56.752 199.881 56.9004C199.564 57.0449 199.18 57.1172 198.727 57.1172C198.418 57.1172 198.135 57.0723 197.877 56.9824C197.623 56.8926 197.404 56.7539 197.221 56.5664C197.037 56.3789 196.895 56.1348 196.793 55.834C196.695 55.5332 196.646 55.1719 196.646 54.75V50.6602H197.73V54.7617C197.73 55.0469 197.762 55.2832 197.824 55.4707C197.891 55.6543 197.979 55.8008 198.088 55.9102C198.201 56.0156 198.326 56.0898 198.463 56.1328C198.604 56.1758 198.748 56.1973 198.896 56.1973C199.357 56.1973 199.723 56.1094 199.992 55.9336C200.262 55.7539 200.455 55.5137 200.572 55.2129C200.693 54.9082 200.754 54.5703 200.754 54.1992ZM205.945 50.6602V51.4922H202.518V50.6602H205.945ZM203.678 49.1191H204.762V55.4297C204.762 55.6445 204.795 55.8066 204.861 55.916C204.928 56.0254 205.014 56.0977 205.119 56.1328C205.225 56.168 205.338 56.1855 205.459 56.1855C205.549 56.1855 205.643 56.1777 205.74 56.1621C205.842 56.1426 205.918 56.127 205.969 56.1152L205.975 57C205.889 57.0273 205.775 57.0527 205.635 57.0762C205.498 57.1035 205.332 57.1172 205.137 57.1172C204.871 57.1172 204.627 57.0645 204.404 56.959C204.182 56.8535 204.004 56.6777 203.871 56.4316C203.742 56.1816 203.678 55.8457 203.678 55.4238V49.1191Z" fill="black"/>
<circle cx="165" cy="54" r="4" stroke="black" stroke-width="2"/>
<line x1="99" y1="19" x2="99" y2="45" stroke="black" stroke-width="2"/>
<line x1="99" y1="63" x2="99" y2="89" stroke="black" stroke-width="2"/>
<line x1="24" y1="10" x2="24" y2="78" stroke="black" stroke-width="2"/>
<line x1="19" y1="29" x2="19" y2="97" stroke="black" stroke-width="2"/>
</svg>
