<svg width="118" height="41" viewBox="0 0 118 41" fill="none" xmlns="http://www.w3.org/2000/svg">
<line x1="11" y1="29" x2="38" y2="29" stroke="black" stroke-width="2"/>
<line x1="11" y1="9" x2="38" y2="9" stroke="black" stroke-width="2"/>
<line x1="73" y1="20" x2="97" y2="20" stroke="black" stroke-width="2"/>
<path d="M4.56445 10.916V7.65234C4.56445 7.40234 4.51367 7.18555 4.41211 7.00195C4.31445 6.81445 4.16602 6.66992 3.9668 6.56836C3.76758 6.4668 3.52148 6.41602 3.22852 6.41602C2.95508 6.41602 2.71484 6.46289 2.50781 6.55664C2.30469 6.65039 2.14453 6.77344 2.02734 6.92578C1.91406 7.07812 1.85742 7.24219 1.85742 7.41797H0.773438C0.773438 7.19141 0.832031 6.9668 0.949219 6.74414C1.06641 6.52148 1.23438 6.32031 1.45312 6.14062C1.67578 5.95703 1.94141 5.8125 2.25 5.70703C2.5625 5.59766 2.91016 5.54297 3.29297 5.54297C3.75391 5.54297 4.16016 5.62109 4.51172 5.77734C4.86719 5.93359 5.14453 6.16992 5.34375 6.48633C5.54688 6.79883 5.64844 7.19141 5.64844 7.66406V10.6172C5.64844 10.8281 5.66602 11.0527 5.70117 11.291C5.74023 11.5293 5.79688 11.7344 5.87109 11.9062V12H4.74023C4.68555 11.875 4.64258 11.709 4.61133 11.502C4.58008 11.291 4.56445 11.0957 4.56445 10.916ZM4.75195 8.15625L4.76367 8.91797H3.66797C3.35938 8.91797 3.08398 8.94336 2.8418 8.99414C2.59961 9.04102 2.39648 9.11328 2.23242 9.21094C2.06836 9.30859 1.94336 9.43164 1.85742 9.58008C1.77148 9.72461 1.72852 9.89453 1.72852 10.0898C1.72852 10.2891 1.77344 10.4707 1.86328 10.6348C1.95312 10.7988 2.08789 10.9297 2.26758 11.0273C2.45117 11.1211 2.67578 11.168 2.94141 11.168C3.27344 11.168 3.56641 11.0977 3.82031 10.957C4.07422 10.8164 4.27539 10.6445 4.42383 10.4414C4.57617 10.2383 4.6582 10.041 4.66992 9.84961L5.13281 10.3711C5.10547 10.5352 5.03125 10.7168 4.91016 10.916C4.78906 11.1152 4.62695 11.3066 4.42383 11.4902C4.22461 11.6699 3.98633 11.8203 3.70898 11.9414C3.43555 12.0586 3.12695 12.1172 2.7832 12.1172C2.35352 12.1172 1.97656 12.0332 1.65234 11.8652C1.33203 11.6973 1.08203 11.4727 0.902344 11.1914C0.726562 10.9062 0.638672 10.5879 0.638672 10.2363C0.638672 9.89648 0.705078 9.59766 0.837891 9.33984C0.970703 9.07812 1.16211 8.86133 1.41211 8.68945C1.66211 8.51367 1.96289 8.38086 2.31445 8.29102C2.66602 8.20117 3.05859 8.15625 3.49219 8.15625H4.75195Z" fill="black"/>
<path d="M0.820312 24H1.91016V31.7695L1.81641 33H0.820312V24ZM6.19336 29.7773V29.9004C6.19336 30.3613 6.13867 30.7891 6.0293 31.1836C5.91992 31.5742 5.75977 31.9141 5.54883 32.2031C5.33789 32.4922 5.08008 32.7168 4.77539 32.877C4.4707 33.0371 4.12109 33.1172 3.72656 33.1172C3.32422 33.1172 2.9707 33.0488 2.66602 32.9121C2.36523 32.7715 2.11133 32.5703 1.9043 32.3086C1.69727 32.0469 1.53125 31.7305 1.40625 31.3594C1.28516 30.9883 1.20117 30.5703 1.1543 30.1055V29.5664C1.20117 29.0977 1.28516 28.6777 1.40625 28.3066C1.53125 27.9355 1.69727 27.6191 1.9043 27.3574C2.11133 27.0918 2.36523 26.8906 2.66602 26.7539C2.9668 26.6133 3.31641 26.543 3.71484 26.543C4.11328 26.543 4.4668 26.6211 4.77539 26.7773C5.08398 26.9297 5.3418 27.1484 5.54883 27.4336C5.75977 27.7188 5.91992 28.0605 6.0293 28.459C6.13867 28.8535 6.19336 29.293 6.19336 29.7773ZM5.10352 29.9004V29.7773C5.10352 29.4609 5.07422 29.1641 5.01562 28.8867C4.95703 28.6055 4.86328 28.3594 4.73438 28.1484C4.60547 27.9336 4.43555 27.7656 4.22461 27.6445C4.01367 27.5195 3.75391 27.457 3.44531 27.457C3.17188 27.457 2.93359 27.5039 2.73047 27.5977C2.53125 27.6914 2.36133 27.8184 2.2207 27.9785C2.08008 28.1348 1.96484 28.3145 1.875 28.5176C1.78906 28.7168 1.72461 28.9238 1.68164 29.1387V30.5508C1.74414 30.8242 1.8457 31.0879 1.98633 31.3418C2.13086 31.5918 2.32227 31.7969 2.56055 31.957C2.80273 32.1172 3.10156 32.1973 3.45703 32.1973C3.75 32.1973 4 32.1387 4.20703 32.0215C4.41797 31.9004 4.58789 31.7344 4.7168 31.5234C4.84961 31.3125 4.94727 31.0684 5.00977 30.791C5.07227 30.5137 5.10352 30.2168 5.10352 29.9004Z" fill="black"/>
<path d="M100.539 19.9004V19.7656C100.539 19.3086 100.605 18.8848 100.738 18.4941C100.871 18.0996 101.062 17.7578 101.312 17.4688C101.562 17.1758 101.865 16.9492 102.221 16.7891C102.576 16.625 102.975 16.543 103.416 16.543C103.861 16.543 104.262 16.625 104.617 16.7891C104.977 16.9492 105.281 17.1758 105.531 17.4688C105.785 17.7578 105.979 18.0996 106.111 18.4941C106.244 18.8848 106.311 19.3086 106.311 19.7656V19.9004C106.311 20.3574 106.244 20.7812 106.111 21.1719C105.979 21.5625 105.785 21.9043 105.531 22.1973C105.281 22.4863 104.979 22.7129 104.623 22.877C104.271 23.0371 103.873 23.1172 103.428 23.1172C102.982 23.1172 102.582 23.0371 102.227 22.877C101.871 22.7129 101.566 22.4863 101.312 22.1973C101.062 21.9043 100.871 21.5625 100.738 21.1719C100.605 20.7812 100.539 20.3574 100.539 19.9004ZM101.623 19.7656V19.9004C101.623 20.2168 101.66 20.5156 101.734 20.7969C101.809 21.0742 101.92 21.3203 102.068 21.5352C102.221 21.75 102.41 21.9199 102.637 22.0449C102.863 22.166 103.127 22.2266 103.428 22.2266C103.725 22.2266 103.984 22.166 104.207 22.0449C104.434 21.9199 104.621 21.75 104.77 21.5352C104.918 21.3203 105.029 21.0742 105.104 20.7969C105.182 20.5156 105.221 20.2168 105.221 19.9004V19.7656C105.221 19.4531 105.182 19.1582 105.104 18.8809C105.029 18.5996 104.916 18.3516 104.764 18.1367C104.615 17.918 104.428 17.7461 104.201 17.6211C103.979 17.4961 103.717 17.4336 103.416 17.4336C103.119 17.4336 102.857 17.4961 102.631 17.6211C102.408 17.7461 102.221 17.918 102.068 18.1367C101.92 18.3516 101.809 18.5996 101.734 18.8809C101.66 19.1582 101.623 19.4531 101.623 19.7656ZM111.549 21.5352V16.6602H112.639V23H111.602L111.549 21.5352ZM111.754 20.1992L112.205 20.1875C112.205 20.6094 112.16 21 112.07 21.3594C111.984 21.7148 111.844 22.0234 111.648 22.2852C111.453 22.5469 111.197 22.752 110.881 22.9004C110.564 23.0449 110.18 23.1172 109.727 23.1172C109.418 23.1172 109.135 23.0723 108.877 22.9824C108.623 22.8926 108.404 22.7539 108.221 22.5664C108.037 22.3789 107.895 22.1348 107.793 21.834C107.695 21.5332 107.646 21.1719 107.646 20.75V16.6602H108.73V20.7617C108.73 21.0469 108.762 21.2832 108.824 21.4707C108.891 21.6543 108.979 21.8008 109.088 21.9102C109.201 22.0156 109.326 22.0898 109.463 22.1328C109.604 22.1758 109.748 22.1973 109.896 22.1973C110.357 22.1973 110.723 22.1094 110.992 21.9336C111.262 21.7539 111.455 21.5137 111.572 21.2129C111.693 20.9082 111.754 20.5703 111.754 20.1992ZM116.945 16.6602V17.4922H113.518V16.6602H116.945ZM114.678 15.1191H115.762V21.4297C115.762 21.6445 115.795 21.8066 115.861 21.916C115.928 22.0254 116.014 22.0977 116.119 22.1328C116.225 22.168 116.338 22.1855 116.459 22.1855C116.549 22.1855 116.643 22.1777 116.74 22.1621C116.842 22.1426 116.918 22.127 116.969 22.1152L116.975 23C116.889 23.0273 116.775 23.0527 116.635 23.0762C116.498 23.1035 116.332 23.1172 116.137 23.1172C115.871 23.1172 115.627 23.0645 115.404 22.959C115.182 22.8535 115.004 22.6777 114.871 22.4316C114.742 22.1816 114.678 21.8457 114.678 21.4238V15.1191Z" fill="black"/>
<path fill-rule="evenodd" clip-rule="evenodd" d="M48.7124 38C58.1523 35.2422 66.4363 29.7752 72.666 22.4976L74.6697 20L72.666 17.5024C66.4363 10.2248 58.1523 4.75784 48.7124 2C45.9628 1.33333 39.4337 0 35.3147 0L33 0.0272331L34.1423 2.0028C34.8557 3.53669 36.3592 6.84403 36.666 7.80224C37.9628 11.6309 38.666 15.7333 38.666 20C38.666 24.2667 37.9628 28.3691 36.666 32.1978C36.0151 33.8016 34.5992 37.207 34.1423 37.9972L33 39.9728L35.3147 40C39.0337 40.1261 45.7961 38.7192 48.7124 38ZM36.666 2.04091C51.0099 2.62882 63.7303 9.51145 72.1382 20C63.7303 30.4885 51.0099 37.3712 36.666 37.9591V37.4565C39.2286 32.1814 40.666 26.2586 40.666 20C40.666 13.7414 39.2286 7.81855 36.666 2.5435V2.04091Z" fill="black"/>
</svg>
