<svg width="120" height="40" viewBox="0 0 120 40" fill="none" xmlns="http://www.w3.org/2000/svg">
<path fill-rule="evenodd" clip-rule="evenodd" d="M55 40H35V0H55C66.0457 0 75 8.9543 75 20C75 31.0457 66.0457 40 55 40ZM73 20C73 10.0589 64.9411 2 55 2H37V38H55C64.9411 38 73 29.9411 73 20Z" fill="black"/>
<line x1="11" y1="30" x2="35" y2="30" stroke="black" stroke-width="2"/>
<line x1="11" y1="10" x2="35" y2="10" stroke="black" stroke-width="2"/>
<line x1="75" y1="20" x2="99" y2="20" stroke="black" stroke-width="2"/>
<path d="M4.56445 11.916V8.65234C4.56445 8.40234 4.51367 8.18555 4.41211 8.00195C4.31445 7.81445 4.16602 7.66992 3.9668 7.56836C3.76758 7.4668 3.52148 7.41602 3.22852 7.41602C2.95508 7.41602 2.71484 7.46289 2.50781 7.55664C2.30469 7.65039 2.14453 7.77344 2.02734 7.92578C1.91406 8.07812 1.85742 8.24219 1.85742 8.41797H0.773438C0.773438 8.19141 0.832031 7.9668 0.949219 7.74414C1.06641 7.52148 1.23438 7.32031 1.45312 7.14062C1.67578 6.95703 1.94141 6.8125 2.25 6.70703C2.5625 6.59766 2.91016 6.54297 3.29297 6.54297C3.75391 6.54297 4.16016 6.62109 4.51172 6.77734C4.86719 6.93359 5.14453 7.16992 5.34375 7.48633C5.54688 7.79883 5.64844 8.19141 5.64844 8.66406V11.6172C5.64844 11.8281 5.66602 12.0527 5.70117 12.291C5.74023 12.5293 5.79688 12.7344 5.87109 12.9062V13H4.74023C4.68555 12.875 4.64258 12.709 4.61133 12.502C4.58008 12.291 4.56445 12.0957 4.56445 11.916ZM4.75195 9.15625L4.76367 9.91797H3.66797C3.35938 9.91797 3.08398 9.94336 2.8418 9.99414C2.59961 10.041 2.39648 10.1133 2.23242 10.2109C2.06836 10.3086 1.94336 10.4316 1.85742 10.5801C1.77148 10.7246 1.72852 10.8945 1.72852 11.0898C1.72852 11.2891 1.77344 11.4707 1.86328 11.6348C1.95312 11.7988 2.08789 11.9297 2.26758 12.0273C2.45117 12.1211 2.67578 12.168 2.94141 12.168C3.27344 12.168 3.56641 12.0977 3.82031 11.957C4.07422 11.8164 4.27539 11.6445 4.42383 11.4414C4.57617 11.2383 4.6582 11.041 4.66992 10.8496L5.13281 11.3711C5.10547 11.5352 5.03125 11.7168 4.91016 11.916C4.78906 12.1152 4.62695 12.3066 4.42383 12.4902C4.22461 12.6699 3.98633 12.8203 3.70898 12.9414C3.43555 13.0586 3.12695 13.1172 2.7832 13.1172C2.35352 13.1172 1.97656 13.0332 1.65234 12.8652C1.33203 12.6973 1.08203 12.4727 0.902344 12.1914C0.726562 11.9062 0.638672 11.5879 0.638672 11.2363C0.638672 10.8965 0.705078 10.5977 0.837891 10.3398C0.970703 10.0781 1.16211 9.86133 1.41211 9.68945C1.66211 9.51367 1.96289 9.38086 2.31445 9.29102C2.66602 9.20117 3.05859 9.15625 3.49219 9.15625H4.75195Z" fill="black"/>
<path d="M0.820312 25H1.91016V32.7695L1.81641 34H0.820312V25ZM6.19336 30.7773V30.9004C6.19336 31.3613 6.13867 31.7891 6.0293 32.1836C5.91992 32.5742 5.75977 32.9141 5.54883 33.2031C5.33789 33.4922 5.08008 33.7168 4.77539 33.877C4.4707 34.0371 4.12109 34.1172 3.72656 34.1172C3.32422 34.1172 2.9707 34.0488 2.66602 33.9121C2.36523 33.7715 2.11133 33.5703 1.9043 33.3086C1.69727 33.0469 1.53125 32.7305 1.40625 32.3594C1.28516 31.9883 1.20117 31.5703 1.1543 31.1055V30.5664C1.20117 30.0977 1.28516 29.6777 1.40625 29.3066C1.53125 28.9355 1.69727 28.6191 1.9043 28.3574C2.11133 28.0918 2.36523 27.8906 2.66602 27.7539C2.9668 27.6133 3.31641 27.543 3.71484 27.543C4.11328 27.543 4.4668 27.6211 4.77539 27.7773C5.08398 27.9297 5.3418 28.1484 5.54883 28.4336C5.75977 28.7188 5.91992 29.0605 6.0293 29.459C6.13867 29.8535 6.19336 30.293 6.19336 30.7773ZM5.10352 30.9004V30.7773C5.10352 30.4609 5.07422 30.1641 5.01562 29.8867C4.95703 29.6055 4.86328 29.3594 4.73438 29.1484C4.60547 28.9336 4.43555 28.7656 4.22461 28.6445C4.01367 28.5195 3.75391 28.457 3.44531 28.457C3.17188 28.457 2.93359 28.5039 2.73047 28.5977C2.53125 28.6914 2.36133 28.8184 2.2207 28.9785C2.08008 29.1348 1.96484 29.3145 1.875 29.5176C1.78906 29.7168 1.72461 29.9238 1.68164 30.1387V31.5508C1.74414 31.8242 1.8457 32.0879 1.98633 32.3418C2.13086 32.5918 2.32227 32.7969 2.56055 32.957C2.80273 33.1172 3.10156 33.1973 3.45703 33.1973C3.75 33.1973 4 33.1387 4.20703 33.0215C4.41797 32.9004 4.58789 32.7344 4.7168 32.5234C4.84961 32.3125 4.94727 32.0684 5.00977 31.791C5.07227 31.5137 5.10352 31.2168 5.10352 30.9004Z" fill="black"/>
<path d="M102.539 19.9004V19.7656C102.539 19.3086 102.605 18.8848 102.738 18.4941C102.871 18.0996 103.062 17.7578 103.312 17.4688C103.562 17.1758 103.865 16.9492 104.221 16.7891C104.576 16.625 104.975 16.543 105.416 16.543C105.861 16.543 106.262 16.625 106.617 16.7891C106.977 16.9492 107.281 17.1758 107.531 17.4688C107.785 17.7578 107.979 18.0996 108.111 18.4941C108.244 18.8848 108.311 19.3086 108.311 19.7656V19.9004C108.311 20.3574 108.244 20.7812 108.111 21.1719C107.979 21.5625 107.785 21.9043 107.531 22.1973C107.281 22.4863 106.979 22.7129 106.623 22.877C106.271 23.0371 105.873 23.1172 105.428 23.1172C104.982 23.1172 104.582 23.0371 104.227 22.877C103.871 22.7129 103.566 22.4863 103.312 22.1973C103.062 21.9043 102.871 21.5625 102.738 21.1719C102.605 20.7812 102.539 20.3574 102.539 19.9004ZM103.623 19.7656V19.9004C103.623 20.2168 103.66 20.5156 103.734 20.7969C103.809 21.0742 103.92 21.3203 104.068 21.5352C104.221 21.75 104.41 21.9199 104.637 22.0449C104.863 22.166 105.127 22.2266 105.428 22.2266C105.725 22.2266 105.984 22.166 106.207 22.0449C106.434 21.9199 106.621 21.75 106.77 21.5352C106.918 21.3203 107.029 21.0742 107.104 20.7969C107.182 20.5156 107.221 20.2168 107.221 19.9004V19.7656C107.221 19.4531 107.182 19.1582 107.104 18.8809C107.029 18.5996 106.916 18.3516 106.764 18.1367C106.615 17.918 106.428 17.7461 106.201 17.6211C105.979 17.4961 105.717 17.4336 105.416 17.4336C105.119 17.4336 104.857 17.4961 104.631 17.6211C104.408 17.7461 104.221 17.918 104.068 18.1367C103.92 18.3516 103.809 18.5996 103.734 18.8809C103.66 19.1582 103.623 19.4531 103.623 19.7656ZM113.549 21.5352V16.6602H114.639V23H113.602L113.549 21.5352ZM113.754 20.1992L114.205 20.1875C114.205 20.6094 114.16 21 114.07 21.3594C113.984 21.7148 113.844 22.0234 113.648 22.2852C113.453 22.5469 113.197 22.752 112.881 22.9004C112.564 23.0449 112.18 23.1172 111.727 23.1172C111.418 23.1172 111.135 23.0723 110.877 22.9824C110.623 22.8926 110.404 22.7539 110.221 22.5664C110.037 22.3789 109.895 22.1348 109.793 21.834C109.695 21.5332 109.646 21.1719 109.646 20.75V16.6602H110.73V20.7617C110.73 21.0469 110.762 21.2832 110.824 21.4707C110.891 21.6543 110.979 21.8008 111.088 21.9102C111.201 22.0156 111.326 22.0898 111.463 22.1328C111.604 22.1758 111.748 22.1973 111.896 22.1973C112.357 22.1973 112.723 22.1094 112.992 21.9336C113.262 21.7539 113.455 21.5137 113.572 21.2129C113.693 20.9082 113.754 20.5703 113.754 20.1992ZM118.945 16.6602V17.4922H115.518V16.6602H118.945ZM116.678 15.1191H117.762V21.4297C117.762 21.6445 117.795 21.8066 117.861 21.916C117.928 22.0254 118.014 22.0977 118.119 22.1328C118.225 22.168 118.338 22.1855 118.459 22.1855C118.549 22.1855 118.643 22.1777 118.74 22.1621C118.842 22.1426 118.918 22.127 118.969 22.1152L118.975 23C118.889 23.0273 118.775 23.0527 118.635 23.0762C118.498 23.1035 118.332 23.1172 118.137 23.1172C117.871 23.1172 117.627 23.0645 117.404 22.959C117.182 22.8535 117.004 22.6777 116.871 22.4316C116.742 22.1816 116.678 21.8457 116.678 21.4238V15.1191Z" fill="black"/>
</svg>
